HIERARCHY
ROOT Hips
{
	OFFSET 0.00000 0.00000 0.00000
	CHANNELS 6 Xposition Yposition Zposition Zrotation Yrotation Xrotation 
	JOINT LHipJoint
	{
		OFFSET 0 0 0
		CHANNELS 3 Zrotation Yrotation Xrotation
		JOINT LeftUpLeg
		{
			OFFSET 1.56857 -1.73443 1.15205
			CHANNELS 3 Zrotation Yrotation Xrotation
			JOINT LeftLeg
			{
				OFFSET 2.39362 -6.57643 0.00000
				CHANNELS 3 Zrotation Yrotation Xrotation
				JOINT LeftFoot
				{
					OFFSET 2.50952 -6.89485 0.00000
					CHANNELS 3 Zrotation Yrotation Xrotation
					JOINT LeftToeBase
					{
						OFFSET 0.17171 -0.47178 1.88682
						CHANNELS 3 Zrotation Yrotation Xrotation
						End Site
						{
							OFFSET 0.00000 -0.00000 0.98146
						}
					}
				}
			}
		}
	}
	JOINT RHipJoint
	{
		OFFSET 0 0 0
		CHANNELS 3 Zrotation Yrotation Xrotation
		JOINT RightUpLeg
		{
			OFFSET -1.28153 -1.73443 1.15205
			CHANNELS 3 Zrotation Yrotation Xrotation
			JOINT RightLeg
			{
				OFFSET -2.26861 -6.23296 0.00000
				CHANNELS 3 Zrotation Yrotation Xrotation
				JOINT RightFoot
				{
					OFFSET -2.54143 -6.98254 0.00000
					CHANNELS 3 Zrotation Yrotation Xrotation
					JOINT RightToeBase
					{
						OFFSET -0.23309 -0.64041 1.93119
						CHANNELS 3 Zrotation Yrotation Xrotation
						End Site
						{
							OFFSET -0.00000 -0.00000 1.02013
						}
					}
				}
			}
		}
	}
	JOINT LowerBack
	{
		OFFSET 0 0 0
		CHANNELS 3 Zrotation Yrotation Xrotation
		JOINT Spine
		{
			OFFSET -0.07096 2.10460 -0.27878
			CHANNELS 3 Zrotation Yrotation Xrotation
			JOINT Spine1
			{
				OFFSET -0.00826 2.13662 -0.08279
				CHANNELS 3 Zrotation Yrotation Xrotation
				JOINT Neck
				{
					OFFSET 0 0 0
					CHANNELS 3 Zrotation Yrotation Xrotation
					JOINT Neck1
					{
						OFFSET 0.03239 1.77799 0.24435
						CHANNELS 3 Zrotation Yrotation Xrotation
						JOINT Head
						{
							OFFSET 0.01026 1.74194 -0.49664
							CHANNELS 3 Zrotation Yrotation Xrotation
							End Site
							{
								OFFSET 0.00170 1.83057 -0.19653
							}
						}
					}
				}
				JOINT LeftShoulder
				{
					OFFSET 0 0 0
					CHANNELS 3 Zrotation Yrotation Xrotation
					JOINT LeftArm
					{
						OFFSET 3.19178 1.35907 -0.31412
						CHANNELS 3 Zrotation Yrotation Xrotation
						JOINT LeftForeArm
						{
							OFFSET 4.85247 -0.00000 -0.00000
							CHANNELS 3 Zrotation Yrotation Xrotation
							JOINT LeftHand
							{
								OFFSET 3.55584 -0.00000 0.00000
								CHANNELS 3 Zrotation Yrotation Xrotation
								JOINT LeftFingerBase
								{
									OFFSET 0 0 0
									CHANNELS 3 Zrotation Yrotation Xrotation
									JOINT LeftHandIndex1
									{
										OFFSET 0.69320 -0.00000 0.00000
										CHANNELS 3 Zrotation Yrotation Xrotation
										End Site
										{
											OFFSET 0.55888 -0.00000 0.00000
										}
									}
								}
								JOINT LThumb
								{
									OFFSET 0 0 0
									CHANNELS 3 Zrotation Yrotation Xrotation
									End Site
									{
										OFFSET 0.56741 -0.00000 0.56741
									}
								}
							}
						}
					}
				}
				JOINT RightShoulder
				{
					OFFSET 0 0 0
					CHANNELS 3 Zrotation Yrotation Xrotation
					JOINT RightArm
					{
						OFFSET -3.28999 1.24191 -0.26899
						CHANNELS 3 Zrotation Yrotation Xrotation
						JOINT RightForeArm
						{
							OFFSET -4.64462 -0.00000 0.00000
							CHANNELS 3 Zrotation Yrotation Xrotation
							JOINT RightHand
							{
								OFFSET -3.40703 -0.00000 0.00000
								CHANNELS 3 Zrotation Yrotation Xrotation
								JOINT RightFingerBase
								{
									OFFSET 0 0 0
									CHANNELS 3 Zrotation Yrotation Xrotation
									JOINT RightHandIndex1
									{
										OFFSET -0.61958 -0.00000 0.00000
										CHANNELS 3 Zrotation Yrotation Xrotation
										End Site
										{
											OFFSET -0.49952 -0.00000 0.00000
										}
									}
								}
								JOINT RThumb
								{
									OFFSET 0 0 0
									CHANNELS 3 Zrotation Yrotation Xrotation
									End Site
									{
										OFFSET -0.50715 -0.00000 0.50715
									}
								}
							}
						}
					}
				}
			}
		}
	}
}
MOTION
Frames: 11
Frame Time: .0083333
12.8712 16.0502 -1.0787 -305.5620 73.5813 -301.3570 0.0000 0.0000 0.0000 29.6354 8.4537 -51.9587 22.1238 19.8915 96.2202 0.4748 1.4309 -13.6138 2.0164 -8.9001 -25.4834 0.0000 0.0000 0.0000 30.8345 2.0026 4.7595 -1.3336 -7.3125 20.6446 -3.2557 -1.2368 -34.6425 -3.8577 -11.9687 35.6212 1.9984 6.8457 24.8831 -2.7820 9.7061 7.9786 -6.7824 5.0840 -3.9859 1.9646 -4.8974 -18.1512 -1.3988 -6.6081 27.7353 -1.8251 -2.7010 12.0007 0.0000 0.0000 0.0000 -84.4798 30.0977 -10.6684 16.4049 -26.0666 -3.8222 -0.0000 0.0000 -16.2815 37.5887 -22.0303 -16.1059 -7.1250 0.0000 -0.0000 5.3723 3.0318 -5.1035 0.0000 0.0000 0.0000 76.8144 7.9581 50.2808 -47.4647 51.9203 -24.1637 0.0000 0.0000 1.1426 -21.1465 -22.3923 8.3822 7.1250 -0.0000 -0.0000 8.1615 -53.6300 -1.7409
13.1511 16.1260 -1.1160 -307.4650 73.7404 -302.1260 0.0000 0.0000 0.0000 26.0812 10.3349 -56.5372 21.8566 19.9172 95.4356 0.3949 1.5086 -12.5156 2.2336 -9.3366 -26.8541 0.0000 0.0000 0.0000 30.2685 0.5689 5.5894 -1.0585 -6.5415 18.3640 -2.9780 0.6138 -32.5568 -3.4057 -11.3245 33.3822 2.2985 7.3933 24.2317 -3.0312 10.4393 7.6828 -7.3159 5.4433 -3.7980 2.0018 -5.3919 -17.8493 -1.3308 -7.2917 28.2316 -1.9076 -2.9610 12.1206 0.0000 -0.0000 0.0000 -84.3882 32.4602 -11.7703 16.0944 -25.6484 -3.6867 -0.0000 0.0000 -14.0356 37.8600 -21.9148 -16.1791 -7.1250 0.0000 -0.0000 5.5589 3.0886 -5.2766 0.0000 -0.0000 0.0000 76.1626 8.5113 50.7425 -48.6588 52.4400 -25.1070 0.0000 -0.0000 -0.1278 -22.0499 -22.2725 8.7276 7.1250 -0.0000 -0.0000 7.1950 -53.6772 -1.5413
13.4376 16.2046 -1.1403 -309.0670 74.4046 -302.7550 0.0000 0.0000 0.0000 22.7691 11.3671 -60.7806 21.3265 19.9578 93.8810 0.3628 0.9305 -11.7532 2.6783 -10.1551 -29.4804 0.0000 0.0000 0.0000 30.1051 -1.1321 6.4756 -0.8179 -5.7707 16.1205 -2.6551 2.3826 -30.2421 -2.8592 -10.4636 30.4915 3.0359 7.8280 23.7190 -3.1652 11.1414 7.4628 -7.9492 5.8005 -3.5236 1.4865 -6.1175 -17.8743 -0.4473 -8.4099 28.6223 -1.6738 -3.3651 12.3345 -0.0000 0.0000 0.0000 -83.8803 34.6823 -11.7264 15.8759 -25.3521 -3.5927 -0.0000 0.0000 -12.7483 38.6900 -21.3385 -16.2470 -7.1250 0.0000 -0.0000 6.1747 3.5250 -5.8178 -0.0000 0.0000 0.0000 75.6211 8.9026 50.7251 -50.0987 53.0352 -26.2530 0.0000 -0.0000 -2.1938 -22.7007 -22.4687 9.0833 7.1250 -0.0000 -0.0000 6.5953 -54.0064 -1.4650
13.7327 16.2862 -1.1587 -310.1860 75.1764 -302.8920 0.0000 0.0000 0.0000 19.3349 11.6619 -64.7495 20.5848 19.9918 91.7102 0.2920 0.4573 -10.3833 2.9605 -10.6309 -31.0448 0.0000 0.0000 0.0000 29.8457 -2.8905 7.2474 -0.6185 -5.0330 14.0027 -2.2905 4.6489 -27.5725 -2.4776 -9.7971 28.3220 3.8786 8.2157 23.1816 -3.3707 11.7985 7.1842 -8.6891 6.1396 -3.2464 1.1144 -6.7660 -17.6382 0.4766 -9.4699 28.7350 -1.4246 -3.7340 12.4000 0.0000 0.0000 0.0000 -82.7032 36.9414 -10.5548 15.5625 -24.9239 -3.4595 -0.0000 0.0000 -12.8204 39.6261 -21.4019 -16.8127 -7.1250 0.0000 -0.0000 6.7277 3.1707 -6.3902 0.0000 0.0000 0.0000 75.2861 8.9394 50.4522 -52.0956 53.8065 -27.8567 0.0000 -0.0000 -5.2643 -23.1037 -23.1069 9.5045 7.1250 -0.0000 -0.0000 6.4042 -54.7518 -1.5388
14.0534 16.3722 -1.1835 -311.0910 75.5583 -302.7090 0.0000 0.0000 0.0000 15.4292 11.5398 -68.2363 19.5774 19.9957 88.7644 0.1962 0.2134 -8.4461 2.8986 -10.5291 -30.7076 0.0000 0.0000 0.0000 28.9412 -4.6236 7.7794 -0.4806 -4.4458 12.3342 -1.8652 7.4941 -24.5087 -2.2351 -9.3395 26.8631 4.3936 8.7014 22.3348 -3.7551 12.4960 6.8915 -9.3772 6.5113 -2.8233 1.1849 -7.2757 -17.5114 0.9737 -10.3454 28.8863 -1.3829 -4.0286 12.4623 -0.0000 0.0000 0.0000 -81.4962 39.0458 -9.7782 15.2380 -24.4766 -3.3239 -0.0000 0.0000 -12.7891 40.2286 -21.3430 -17.1122 -7.1250 0.0000 -0.0000 7.1025 3.0561 -6.7667 -0.0000 0.0000 0.0000 75.0742 8.8189 50.1165 -54.5063 54.6588 -29.8128 0.0000 -0.0000 -9.1366 -23.6454 -24.0730 10.1258 7.1250 -0.0000 -0.0000 6.1925 -55.8714 -1.6563
14.3648 16.4547 -1.1967 -311.5120 75.8079 -301.9130 0.0000 0.0000 0.0000 11.2960 11.0070 -71.5452 18.4167 19.9398 85.3663 0.1076 0.3955 -6.3519 2.5454 -9.9199 -28.7178 0.0000 0.0000 0.0000 27.9187 -6.0197 7.8987 -0.4130 -4.1254 11.4296 -1.3928 10.1727 -21.2482 -1.8392 -8.5229 24.3138 4.4608 9.2216 21.3773 -4.1419 13.1384 6.5642 -9.7822 6.8457 -2.4697 1.2970 -7.7714 -17.7380 1.2941 -11.1879 29.1875 -1.4294 -4.3155 12.6470 0.0000 0.0000 0.0000 -80.6563 40.8169 -9.8570 14.8585 -23.9486 -3.1683 -0.0000 0.0000 -11.9128 40.7476 -20.7883 -17.0030 -7.1250 0.0000 -0.0000 7.5302 3.5619 -7.1106 0.0000 0.0000 0.0000 74.8110 8.5718 49.8059 -57.2763 55.5394 -32.0849 0.0000 -0.0000 -13.0405 -23.8587 -25.5478 10.7988 7.1250 -0.0000 -0.0000 6.5577 -57.4540 -2.0058
14.6602 16.5224 -1.1866 -314.2310 75.8582 -303.0960 0.0000 0.0000 0.0000 7.3661 11.0403 -74.8064 17.2013 19.8112 81.7923 0.0495 0.9385 -4.6581 2.1071 -9.0856 -26.0635 0.0000 0.0000 0.0000 27.4766 -6.0413 7.7023 -0.4100 -4.1106 11.3881 -0.9029 12.4162 -17.8574 -1.3428 -7.3367 20.7169 4.1662 10.0321 20.2870 -4.4658 14.0735 6.0588 -9.9502 7.2968 -2.2765 1.0650 -8.2234 -17.4530 2.0212 -11.9527 28.9488 -1.2237 -4.5882 12.5694 -0.0000 0.0000 0.0000 -79.6484 42.8681 -9.0596 14.6115 -23.6021 -3.0687 -0.0000 0.0000 -11.4856 41.4901 -20.4973 -17.2072 -7.1250 0.0000 -0.0000 8.0388 3.6818 -7.5823 -0.0000 0.0000 0.0000 74.4673 8.0273 49.4781 -60.4153 56.4196 -34.6868 0.0000 -0.0000 -16.2863 -23.7877 -26.6096 11.1686 7.1250 -0.0000 -0.0000 7.1083 -58.5386 -2.3610
14.9732 16.5977 -1.1780 -313.6760 76.3759 -301.6880 0.0000 0.0000 0.0000 3.2466 9.9072 -77.0667 15.8024 19.5722 77.6425 0.0042 1.9938 -3.1739 1.5537 -7.8670 -22.3108 0.0000 0.0000 0.0000 27.1294 -6.1112 8.0569 -0.4216 -4.1677 11.5489 -0.4615 13.8889 -14.5538 -1.0017 -6.3689 17.8585 4.1818 10.4522 19.6547 -4.6590 14.6021 5.8131 -10.1259 7.5667 -2.0636 1.0564 -8.5546 -17.3528 2.3664 -12.5080 28.6199 -1.1694 -4.8054 12.4501 -0.0000 0.0000 0.0000 -78.5115 45.0351 -7.3987 14.5428 -23.5053 -3.0412 -0.0000 0.0000 -11.5076 42.2929 -20.4454 -17.6288 -7.1250 0.0000 -0.0000 8.5327 3.4872 -8.0896 -0.0000 0.0000 0.0000 73.9838 7.3668 49.0423 -63.7273 57.2240 -37.4592 0.0000 -0.0000 -18.7028 -24.2845 -25.7794 11.1019 7.1250 -0.0000 -0.0000 6.1915 -57.7900 -1.9433
15.2949 16.6622 -1.1701 -313.4670 77.0359 -300.7730 0.0000 0.0000 0.0000 -0.8540 8.8528 -78.7171 14.3068 19.2045 73.1393 0.0051 0.3582 1.2648 1.0317 -6.4609 -18.1276 0.0000 0.0000 0.0000 27.2108 -5.6404 8.5224 -0.4825 -4.4544 12.3588 -0.0784 14.8704 -11.2990 -0.8624 -5.9218 16.5578 4.2307 10.8541 18.8863 -4.6389 15.1238 5.7393 -10.0231 7.8446 -1.6457 0.5939 -8.9740 -17.4842 3.0694 -13.1780 28.4774 -0.9508 -5.0550 12.5258 -0.0000 0.0000 0.0000 -77.8322 46.9530 -6.1857 14.4940 -23.4365 -3.0218 -0.0000 0.0000 -11.2291 43.0717 -20.6678 -18.2607 -7.1250 0.0000 -0.0000 8.9499 2.9550 -8.5836 -0.0000 0.0000 0.0000 73.3366 6.6569 48.5650 -67.2914 57.9589 -40.4686 0.0000 -0.0000 -20.3418 -23.8314 -25.4689 10.7548 7.1250 -0.0000 -0.0000 6.5541 -57.3660 -1.9907
15.6248 16.7178 -1.1633 -313.0150 77.9181 -299.9320 0.0000 0.0000 0.0000 -5.0272 7.8305 -79.5776 12.7434 18.6876 68.3267 0.0597 -0.8412 5.0065 0.7961 -5.6950 -15.9020 0.0000 0.0000 0.0000 27.6530 -5.0140 9.1810 -0.6155 -5.0212 13.9691 0.1221 14.8240 -8.9750 -0.8694 -5.9450 16.6249 4.5128 11.1341 18.2868 -4.4867 15.5330 5.7080 -9.9087 8.0647 -1.2662 0.3704 -9.3112 -17.4889 3.1583 -13.6101 28.3600 -0.9509 -5.2633 12.5113 0.0000 -0.0000 0.0000 -77.4166 48.9484 -5.3558 14.4792 -23.4156 -3.0159 -0.0000 0.0000 -10.8744 43.9369 -21.2625 -19.2608 -7.1250 0.0000 -0.0000 9.3293 1.9199 -9.1347 0.0000 -0.0000 0.0000 72.8264 5.6400 48.1387 -71.1549 58.6146 -43.7556 0.0000 -0.0000 -20.9131 -23.5470 -25.1193 10.4809 7.1250 -0.0000 -0.0000 6.7150 -56.9404 -1.9708
15.9632 16.7612 -1.1624 -311.7970 78.8629 -298.6550 0.0000 0.0000 0.0000 -9.3842 6.8511 -79.6305 11.2109 18.0367 63.4645 0.1562 -1.8822 8.4049 0.4744 -4.4174 -12.2541 0.0000 0.0000 0.0000 28.0630 -4.7368 9.8582 -0.8590 -5.9105 16.5249 0.1334 13.8370 -8.0111 -0.8034 -5.7205 15.9754 5.0265 11.2971 17.9648 -4.3464 15.8361 5.7058 -9.9651 8.2377 -0.9484 -0.2239 -9.7333 -17.4370 3.8341 -14.2268 28.5098 -0.7141 -5.4858 12.6892 -0.0000 -0.0000 0.0000 -76.8474 51.0608 -4.0900 14.5558 -23.5237 -3.0464 -0.0000 0.0000 -10.9624 44.8190 -21.6192 -20.1084 -7.1250 0.0000 -0.0000 9.7646 1.1558 -9.7086 -0.0000 -0.0000 0.0000 72.6008 4.3504 47.7097 -75.0742 59.1413 -47.1111 0.0000 -0.0000 -20.2904 -23.0057 -25.0324 10.1850 7.1250 -0.0000 -0.0000 7.2606 -56.7333 -2.0957
